<svg version="1.1" id="Layer_1" xmlns="http://www.w3.org/2000/svg" xmlns:xlink="http://www.w3.org/1999/xlink" x="0px" y="0px"
	 width="100%" viewBox="0 0 352 352" enable-background="new 0 0 352 352" xml:space="preserve">
<path fill="#000000" opacity="1.000000" stroke="none" 
	d="
M201.000000,353.000000 
	C134.000015,353.000000 67.500023,353.000000 1.000027,353.000000 
	C1.000018,235.666702 1.000018,118.333397 1.000009,1.000074 
	C118.333282,1.000049 235.666565,1.000049 352.999878,1.000025 
	C352.999939,118.333260 352.999939,235.666519 352.999969,352.999878 
	C302.500000,353.000000 252.000000,353.000000 201.000000,353.000000 
M259.549042,333.096283 
	C262.068909,332.766296 262.204498,329.914246 264.156921,328.844238 
	C276.089813,322.304474 286.793518,314.181305 296.224976,304.302429 
	C302.621399,297.602600 309.327728,291.265289 314.825928,283.697479 
	C320.219940,276.273010 324.520966,268.085510 330.746674,261.240692 
	C333.808777,257.874054 333.132355,253.082001 334.773865,249.117859 
	C342.423035,230.645996 348.190674,211.729584 347.781708,191.434692 
	C347.743195,189.525162 348.423889,188.018387 349.477478,186.394272 
	C351.313263,183.564407 351.443695,180.189270 349.513062,177.458481 
	C348.011658,175.334869 347.891418,173.238617 347.757996,170.913132 
	C347.356537,163.914383 347.467743,156.811630 346.240570,149.953125 
	C344.588806,140.721802 341.051788,131.939148 338.129547,123.016563 
	C333.936432,110.213768 327.401855,98.541763 320.383636,87.244728 
	C315.767303,79.813919 309.773071,73.215126 303.635712,66.773087 
	C289.511871,51.948055 274.029572,39.194935 255.457825,30.267801 
	C243.750732,24.640388 231.584274,20.441801 219.050568,17.288509 
	C203.512695,13.379416 187.636719,12.912317 171.706635,13.273068 
	C160.869415,13.518488 150.191849,15.178366 139.809677,18.018028 
	C129.222031,20.913893 118.784836,24.340103 108.768394,29.106184 
	C97.961624,34.248322 87.872307,40.481178 78.516113,47.761753 
	C69.657806,54.654892 61.886932,62.829613 54.101513,70.965698 
	C44.873646,80.609192 39.465107,92.867004 31.115992,103.071831 
	C29.973900,104.467751 29.163372,106.227150 29.388134,108.164940 
	C29.615683,110.126770 28.722370,111.728249 27.923424,113.368813 
	C25.220770,118.918404 22.874748,124.613518 21.345779,130.598648 
	C17.483400,145.717926 14.271033,160.871185 14.111555,176.658813 
	C13.929506,194.681091 15.464015,212.338196 20.300800,229.754776 
	C22.986649,239.426132 25.696613,249.486893 30.634764,257.769348 
	C35.535728,265.989410 39.501144,275.047791 46.459057,282.288422 
	C54.214066,290.358582 59.068592,300.932190 68.836655,307.497040 
	C75.912376,312.252472 81.697403,318.970398 88.877388,323.520050 
	C104.378822,333.342682 120.908440,341.532928 138.734497,345.997833 
	C150.382172,348.915253 162.459915,350.535095 174.637573,350.788788 
	C188.085831,351.068970 201.396652,350.037720 214.629120,347.836700 
	C227.504395,345.695129 239.256592,339.651428 251.959778,336.870422 
	C252.571259,336.736603 253.466553,336.338196 253.608109,335.873627 
	C254.495087,332.962311 257.049805,333.853027 259.549042,333.096283 
z"/>
<path fill="#000000" opacity="1.000000" stroke="none" 
	d="
M139.082550,136.444717 
	C139.261902,132.877457 140.588730,130.147141 142.132080,127.323425 
	C145.725418,120.749016 149.244064,114.095329 152.167175,107.208153 
	C153.793091,103.377251 158.557587,101.806641 158.917603,97.626816 
	C159.459473,91.335434 163.456757,86.700676 165.813965,81.296501 
	C167.543304,77.331741 169.132492,73.142952 171.698883,69.744850 
	C175.427673,64.807640 177.663422,59.153931 179.855301,54.002373 
	C181.679947,53.765083 182.279816,54.405266 182.668808,55.127083 
	C187.380463,63.869816 192.818130,72.322212 196.536392,81.472107 
	C200.568787,91.395027 207.156509,99.850281 211.180222,109.671661 
	C215.484406,120.177643 222.544281,129.297470 226.577484,139.877518 
	C231.404099,152.538834 239.968826,163.176590 245.202332,175.584946 
	C245.789291,176.976578 246.594925,178.224976 246.381668,179.812622 
	C246.194870,181.203369 246.421005,182.686981 247.382980,183.571777 
	C255.638733,191.165466 259.215942,201.786163 263.163055,211.481598 
	C267.367218,221.808380 274.478058,230.249496 278.670197,240.454300 
	C280.518982,244.954773 280.361206,250.631317 285.025726,254.004135 
	C286.228973,254.874161 285.618774,256.616638 283.907776,256.969391 
	C282.460236,257.267883 280.929565,257.227203 279.435638,257.227570 
	C214.114166,257.244324 148.792709,257.251770 83.471237,257.251099 
	C76.396355,257.251038 75.930481,256.640961 79.338470,250.270218 
	C82.437111,244.477768 84.166328,237.854782 89.557732,233.370865 
	C90.730171,232.395767 91.417320,230.553955 91.820015,228.981262 
	C95.073593,216.274704 101.906441,205.118820 108.251862,193.993011 
	C116.666283,179.239532 122.763329,163.422455 130.901779,148.575806 
	C133.242020,144.306610 137.829102,141.737656 139.082550,136.444717 
M243.109421,221.303452 
	C236.698410,209.144897 230.690002,196.778259 224.401031,184.557495 
	C219.143082,174.340179 212.390228,164.701324 209.970047,153.123657 
	C209.681137,151.741562 208.872986,149.938217 207.767105,149.360184 
	C204.927505,147.875946 204.094452,145.171906 202.823181,142.712875 
	C200.606705,138.425476 198.758682,133.925629 196.275787,129.804276 
	C193.939285,125.925957 193.698853,120.952187 191.270370,117.708038 
	C188.576477,114.109344 186.313553,110.407776 184.159180,106.534332 
	C183.343323,105.067482 183.199234,102.885056 180.516342,102.551315 
	C179.211884,106.360016 174.773560,108.536301 173.892380,111.994751 
	C171.589615,121.032745 166.083847,128.429932 162.682053,136.843597 
	C161.420059,139.964874 157.502289,140.910828 156.735413,144.507767 
	C156.292999,146.582748 156.809372,148.693817 155.650238,150.789459 
	C151.947800,157.483337 148.640930,164.394623 145.032104,171.142166 
	C142.961105,175.014389 141.568192,179.147812 137.742996,182.161102 
	C134.249619,184.913010 135.294785,190.242828 133.468506,194.028305 
	C129.133163,203.014542 124.196205,211.709320 119.796616,220.666428 
	C118.426781,223.455246 115.457664,224.512222 114.175362,227.430756 
	C111.617592,233.252289 112.205864,234.642014 118.416588,234.778351 
	C120.912903,234.833145 123.411102,234.808380 125.908447,234.808502 
	C163.868393,234.810364 201.828354,234.810883 239.788300,234.809082 
	C241.453079,234.809006 243.125351,234.880203 244.781174,234.751480 
	C249.162506,234.410889 250.376648,231.962799 248.594070,227.899628 
	C247.462784,225.320969 244.356018,224.620026 243.109421,221.303452 
z"/>
</svg>